<?xml version="1.0" standalone="no"?><!DOCTYPE svg PUBLIC "-//W3C//DTD SVG 1.1//EN" "http://www.w3.org/Graphics/SVG/1.1/DTD/svg11.dtd"><svg t="1681896638153" class="icon" viewBox="0 0 1024 1024" version="1.1" xmlns="http://www.w3.org/2000/svg" p-id="1619" xmlns:xlink="http://www.w3.org/1999/xlink" width="200" height="200"><path d="M622.248626 511.950622l378.33388 376.655029a80.091041 80.091041 0 0 1 1.580094 111.297908 75.548269 75.548269 0 0 1-108.631498 1.67885L512.135789 621.767191l-381.395313 379.815218a75.548269 75.548269 0 0 1-108.631497-1.580094 80.091041 80.091041 0 0 1 1.580094-111.297908L402.022953 511.950622 23.689073 135.295593A80.091041 80.091041 0 0 1 22.108979 23.997685a75.548269 75.548269 0 0 1 108.631497-1.67885l381.395313 379.815218L893.531102 22.318835a75.548269 75.548269 0 0 1 108.631498 1.580095 80.091041 80.091041 0 0 1-1.580094 111.297907z" fill="#E6E6E6" p-id="1620"></path></svg>